<svg xmlns="http://www.w3.org/2000/svg" width="112" height="31" viewBox="0 0 112 31" fill="none"><path d="M9.97837 15.5517L19.1866 28.0971L14.199 28.0971L6.74094 17.9279L9.97837 15.5517Z" fill="#141414"/><path d="M9.97837 15.5517L19.1866 28.0971L14.199 28.0971L6.74094 17.9279L9.97837 15.5517Z" fill="#141414"/><path d="M25.3878 14.7452L46.1029 14.7452L46.1029 18.639L25.3878 18.639L25.3878 14.7452Z" fill="#141414"/><path d="M25.3878 24.0904L46.1029 24.0904L46.1029 28.14L25.3878 28.14L25.3878 24.0904Z" fill="#141414"/><path d="M25.3878 5.08853L46.1029 5.08853L46.1029 9.13811L25.3878 9.13811L25.3878 5.08853Z" fill="#141414"/><path d="M3.8147e-05 24.0904L4.04962 24.0904L4.04962 28.14L3.80585e-05 28.14L3.8147e-05 24.0904Z" fill="#FD5423"/><path fill-rule="evenodd" clip-rule="evenodd" d="M106.584 9.12735C108.563 12.5555 108.313 16.659 106.283 19.7589L108.477 23.5595C112.378 19.1134 113.218 12.5064 110.096 7.09957C106.176 0.310494 97.4951 -2.01562 90.706 1.90406C83.9169 5.82374 81.5908 14.5049 85.5105 21.294C88.6322 26.7008 94.7738 29.277 100.575 28.1219L98.3804 24.3214C94.6808 24.5294 91.0019 22.6943 89.0227 19.2662C86.2229 14.4169 87.8844 8.21603 92.7338 5.41626C97.5831 2.6165 103.784 4.278 106.584 9.12735ZM100.461 15.4618L108.782 28.3888H103.959L97.0507 17.6569L100.461 15.4618Z" fill="#FD5423"/><path fill-rule="evenodd" clip-rule="evenodd" d="M74.0137 5.06946H58.2985C54.6588 5.06946 51.7082 8.02002 51.7082 11.6597V12.1667C51.7082 15.8064 54.6588 18.7569 58.2985 18.7569H67.17C68.7098 18.7569 69.9581 20.0052 69.9581 21.5451C69.9581 23.085 68.7098 24.3333 67.17 24.3333H51.7082V28.3888H67.4234C71.0631 28.3888 74.0137 25.4383 74.0137 21.7986V21.2916C74.0137 17.6519 71.0631 14.7014 67.4234 14.7014H58.5519C57.012 14.7014 55.7637 13.4531 55.7637 11.9132C55.7637 10.3733 57.0121 9.125 58.5519 9.125H74.0137V5.06946Z" fill="#141414"/><path fill-rule="evenodd" clip-rule="evenodd" d="M0 18.6391H14.0638C16.2222 18.6391 18.2082 17.8319 19.5173 16.7291C20.8264 15.6264 21.3382 13.8575 21.3382 11.7713C21.3382 10.6089 21.0555 9.53602 20.4902 8.5525C19.925 7.56899 19.1365 6.7792 18.125 6.18313C17.1134 5.55726 15.9531 5.24432 14.644 5.24432H2.92752e-07L2.07937e-07 9.12499H14.7014C16.2412 9.12499 17.4895 10.3733 17.4895 11.9132C17.4895 13.453 16.2412 14.7014 14.7014 14.7014H8.60619e-08L0 18.6391Z" fill="#141414"/></svg>